<svg id="Calque_1" data-name="Calque 1" xmlns="http://www.w3.org/2000/svg" xmlns:xlink="http://www.w3.org/1999/xlink" viewBox="0 0 312.44 110.8"><defs><style>.cls-1,.cls-11{fill:none;}.cls-2{fill:#1d1d1b;}.cls-3{clip-path:url(#clip-path);}.cls-4{fill:url(#Dégradé_sans_nom);}.cls-5{clip-path:url(#clip-path-2);}.cls-6{fill:url(#Dégradé_sans_nom_2);}.cls-7{clip-path:url(#clip-path-3);}.cls-8{fill:url(#Dégradé_sans_nom_3);}.cls-9{fill:#b3b3b2;}.cls-10{fill:#e21e26;}.cls-11{stroke:#3d3c3b;stroke-miterlimit:10;}.cls-12{clip-path:url(#clip-path-4);}.cls-13{opacity:0.09;}.cls-14{clip-path:url(#clip-path-5);}.cls-15{fill:#fff;}.cls-16{clip-path:url(#clip-path-6);}.cls-17{opacity:0.6;}.cls-18{clip-path:url(#clip-path-7);}.cls-19{clip-path:url(#clip-path-8);}.cls-20{fill:url(#Dégradé_sans_nom_4);}.cls-21{fill:#3d3c3b;}</style><clipPath id="clip-path" transform="translate(0 0)"><path class="cls-1" d="M143.12,70.87H108.55V81.45a1.55,1.55,0,0,0,1.56,1.47H144a1.65,1.65,0,0,0,1.72-1.47V72.33A1.59,1.59,0,0,0,144,70.87Z"/></clipPath><linearGradient id="Dégradé_sans_nom" x1="-247.44" y1="204.37" x2="-246.44" y2="204.37" gradientTransform="matrix(37.17, 0, 0, -37.17, 9306.75, 7674.09)" gradientUnits="userSpaceOnUse"><stop offset="0" stop-color="#2981c4"/><stop offset="0.01" stop-color="#2980c2"/><stop offset="0.29" stop-color="#216aa0"/><stop offset="0.56" stop-color="#1b5a87"/><stop offset="0.8" stop-color="#175078"/><stop offset="1" stop-color="#164d73"/></linearGradient><clipPath id="clip-path-2" transform="translate(0 0)"><path class="cls-1" d="M120.24,47.28H108.55v12H139.8a1.5,1.5,0,0,0,1.56-1.46v-9a1.45,1.45,0,0,0-1.56-1.47Z"/></clipPath><linearGradient id="Dégradé_sans_nom_2" x1="-247.44" y1="204.37" x2="-246.44" y2="204.37" gradientTransform="matrix(32.81, 0, 0, -32.81, 8226.76, 6758.45)" xlink:href="#Dégradé_sans_nom"/><clipPath id="clip-path-3" transform="translate(0 0)"><path class="cls-1" d="M110.11,23.36a1.49,1.49,0,0,0-1.56,1.46V35.49H144A1.65,1.65,0,0,0,145.73,34V24.82A1.59,1.59,0,0,0,144,23.36Z"/></clipPath><linearGradient id="Dégradé_sans_nom_3" x1="-247.44" y1="204.37" x2="-246.44" y2="204.37" gradientTransform="matrix(37.17, 0, 0, -37.17, 9306.75, 7626.63)" xlink:href="#Dégradé_sans_nom"/><clipPath id="clip-path-4" transform="translate(0 0)"><path class="cls-1" d="M143.12,70.87H108.55V81.45a1.55,1.55,0,0,0,1.56,1.47H144a1.65,1.65,0,0,0,1.72-1.47V72.33A1.59,1.59,0,0,0,144,70.87ZM120.24,47.28H108.55v12H139.8a1.5,1.5,0,0,0,1.56-1.46v-9a1.45,1.45,0,0,0-1.56-1.47ZM110.11,23.36a1.49,1.49,0,0,0-1.56,1.46V35.49H144A1.65,1.65,0,0,0,145.73,34V24.82A1.59,1.59,0,0,0,144,23.36Z"/></clipPath><clipPath id="clip-path-5" transform="translate(0 0)"><rect class="cls-1" x="108.55" y="22.67" width="18.59" height="60.25"/></clipPath><clipPath id="clip-path-6" transform="translate(0 0)"><path class="cls-1" d="M207.28,23.36a3.27,3.27,0,0,0-1.46.52L193.08,42.47c-4.39-6.29-8.61-12.31-12.91-18.59a2.56,2.56,0,0,0-1.55-.52H167.26c-1.64,0-2.33,1.29-1.46,2.41h-.09c13.08,18.76,16.18,23.15,19.36,27.63L165.71,80.51h.09c-.87,1.12-.18,2.41,1.46,2.41h11.36a2.92,2.92,0,0,0,1.55-.61c4.21-5.93,8.69-12.56,12.91-18.5,4.39,6.28,8.35,12.22,12.74,18.5a2,2,0,0,0,1.46.61h11.53a1.54,1.54,0,0,0,1.46-2.41c-3.61-5-7.57-10.5-11.18-15.58-2.85-3.87-5.43-7.75-8.27-11.53l19.45-27.63a1.54,1.54,0,0,0-1.46-2.41ZM84.87,22.67a1.68,1.68,0,0,0-1.81,1.55V59.16C74.37,46.68,66.45,35.67,57.85,23.27a2.17,2.17,0,0,0-1.47-.6H46.66a1.74,1.74,0,0,0-1.81,1.55V81.45a1.74,1.74,0,0,0,1.81,1.47H56.3a1.73,1.73,0,0,0,1.8-1.47V46.34C67,59,74.46,69.75,83.24,82.31a2.17,2.17,0,0,0,1.46.61h9.64a1.67,1.67,0,0,0,1.81-1.47V24.22a1.68,1.68,0,0,0-1.81-1.55Zm140.9,0A1.74,1.74,0,0,0,224,24.22v8.69a1.74,1.74,0,0,0,1.81,1.47H236V81.45a1.74,1.74,0,0,0,1.81,1.47h9.47a1.76,1.76,0,0,0,1.89-1.47V34.38h10.16a1.76,1.76,0,0,0,1.89-1.47V24.22a1.76,1.76,0,0,0-1.89-1.55Z"/></clipPath><clipPath id="clip-path-7" transform="translate(0 0)"><rect class="cls-1" width="312.44" height="92.63"/></clipPath><clipPath id="clip-path-8" transform="translate(0 0)"><path class="cls-1" d="M0,92.63S123.73,28.45,312.44,41.18L309.67,0H0Z"/></clipPath><linearGradient id="Dégradé_sans_nom_4" x1="-247.44" y1="204.37" x2="-246.44" y2="204.37" gradientTransform="matrix(0, -117.64, -117.64, 0, 24198.95, -29019.54)" gradientUnits="userSpaceOnUse"><stop offset="0" stop-color="#fff"/><stop offset="1" stop-color="#1d1d1b"/></linearGradient></defs><title>Logo neext FINAL - fond blanc</title><path class="cls-2" d="M96.15,81.45a1.67,1.67,0,0,1-1.81,1.47H84.7a2.15,2.15,0,0,1-1.46-.61C74.46,69.75,67,59,58.1,46.34V81.45a1.73,1.73,0,0,1-1.8,1.47H46.66a1.73,1.73,0,0,1-1.81-1.47V24.22a1.73,1.73,0,0,1,1.81-1.55h9.72a2.17,2.17,0,0,1,1.47.6c8.6,12.4,16.52,23.41,25.21,35.89V24.22a1.68,1.68,0,0,1,1.81-1.55h9.47a1.68,1.68,0,0,1,1.81,1.55Z" transform="translate(0 0)"/><path class="cls-2" d="M185.07,53.4c-3.18-4.48-6.28-8.87-19.36-27.63h.08c-.86-1.12-.17-2.41,1.47-2.41h11.36a2.56,2.56,0,0,1,1.55.52c4.3,6.28,8.52,12.3,12.91,18.59l12.73-18.59a3.35,3.35,0,0,1,1.47-.52h11.53a1.54,1.54,0,0,1,1.46,2.41L200.82,53.4c2.84,3.78,5.42,7.66,8.27,11.53,3.61,5.08,7.57,10.58,11.18,15.58a1.54,1.54,0,0,1-1.46,2.41H207.28a2,2,0,0,1-1.47-.61c-4.38-6.28-8.34-12.22-12.73-18.5-4.22,5.94-8.7,12.57-12.91,18.5a2.92,2.92,0,0,1-1.55.61H167.26c-1.64,0-2.33-1.29-1.47-2.41h-.08Z" transform="translate(0 0)"/><path class="cls-2" d="M261.23,32.91a1.76,1.76,0,0,1-1.89,1.47H249.18V81.45a1.76,1.76,0,0,1-1.89,1.47h-9.47A1.74,1.74,0,0,1,236,81.45V34.38H225.77A1.74,1.74,0,0,1,224,32.91V24.22a1.74,1.74,0,0,1,1.81-1.55h33.57a1.76,1.76,0,0,1,1.89,1.55Z" transform="translate(0 0)"/><g class="cls-3"><rect class="cls-4" x="108.55" y="70.87" width="37.17" height="12.05"/></g><g class="cls-5"><rect class="cls-6" x="108.55" y="47.28" width="32.81" height="11.96"/></g><g class="cls-7"><rect class="cls-8" x="108.55" y="23.36" width="37.17" height="12.13"/></g><path class="cls-9" d="M161.35,59.25H127.14V69.46a1.49,1.49,0,0,0,1.5,1.41h32.71A1.59,1.59,0,0,0,163,69.46v-8.8a1.53,1.53,0,0,0-1.66-1.41" transform="translate(0 0)"/><path class="cls-9" d="M127.14,35.49v11.8h30.15a1.46,1.46,0,0,0,1.51-1.45v-8.9a1.41,1.41,0,0,0-1.51-1.45H127.14Z" transform="translate(0 0)"/><path class="cls-10" d="M161.35,11.22H128.64a1.46,1.46,0,0,0-1.5,1.47V23.36h34.21A1.61,1.61,0,0,0,163,21.9V12.69a1.55,1.55,0,0,0-1.66-1.47" transform="translate(0 0)"/><line class="cls-11" x1="44.85" y1="100.88" x2="129.51" y2="100.88"/><g class="cls-12"><g class="cls-13"><g class="cls-14"><rect class="cls-15" x="108.55" y="22.67" width="18.59" height="60.25"/></g></g></g><g id="neext"><g class="cls-16"><g class="cls-17"><g class="cls-18"><g class="cls-19"><rect class="cls-20" width="312.44" height="92.63"/></g></g></g></g></g><g id="engineering"><path class="cls-21" d="M142.87,103.92l.95.84a5.46,5.46,0,0,1-4.43,2.16,5.14,5.14,0,0,1-5.38-5.38,5.07,5.07,0,0,1,5.24-5.34,4.57,4.57,0,0,1,4.85,4.13l-8.24,2.8a3.7,3.7,0,0,0,3.63,2.48,4.28,4.28,0,0,0,3.38-1.69m-7.29-2.44a3.54,3.54,0,0,0,0,.46l6.93-2.4a3.18,3.18,0,0,0-3.2-2,3.6,3.6,0,0,0-3.75,4" transform="translate(0 0)"/><path class="cls-21" d="M157.44,100.33v6.53h-1.57v-6.13a2.77,2.77,0,0,0-3-3,3.47,3.47,0,0,0-3.56,3.47v5.68h-1.57V96.26h1.57V98.6a4.18,4.18,0,0,1,4.11-2.4c2.54,0,4,1.55,4,4.13" transform="translate(0 0)"/><path class="cls-21" d="M171.23,96.26v9.49c0,3.1-2.11,5-5.33,5a7,7,0,0,1-4.35-1.55l.72-1.15a5.44,5.44,0,0,0,3.57,1.35,3.51,3.51,0,0,0,3.82-3.66v-1.61a4.16,4.16,0,0,1-3.9,2.21,5.1,5.1,0,0,1,0-10.19,4.2,4.2,0,0,1,3.94,2.22V96.26Zm-1.57,5.06A3.64,3.64,0,1,0,166,105.1a3.58,3.58,0,0,0,3.62-3.78" transform="translate(0 0)"/><path class="cls-21" d="M177.64,93.22a1,1,0,1,1-2,0,1,1,0,1,1,2,0m-.24,13.64h-1.55V96.26h1.55Z" transform="translate(0 0)"/><path class="cls-21" d="M192,100.33v6.53h-1.57v-6.13a2.77,2.77,0,0,0-3-3,3.49,3.49,0,0,0-3.57,3.47v5.68h-1.57V96.26h1.57V98.6A4.2,4.2,0,0,1,188,96.2c2.54,0,4,1.55,4,4.13" transform="translate(0 0)"/><path class="cls-21" d="M204.33,103.92l.95.84a5.46,5.46,0,0,1-4.43,2.16,5.14,5.14,0,0,1-5.38-5.38,5.07,5.07,0,0,1,5.23-5.34,4.57,4.57,0,0,1,4.86,4.13l-8.24,2.8a3.68,3.68,0,0,0,3.63,2.48,4.28,4.28,0,0,0,3.38-1.69M197,101.48a3.54,3.54,0,0,0,0,.46l6.93-2.4a3.19,3.19,0,0,0-3.21-2,3.6,3.6,0,0,0-3.74,4" transform="translate(0 0)"/><path class="cls-21" d="M217,103.92l1,.84a5.46,5.46,0,0,1-4.43,2.16,5.14,5.14,0,0,1-5.38-5.38,5.07,5.07,0,0,1,5.23-5.34,4.57,4.57,0,0,1,4.86,4.13l-8.24,2.8a3.68,3.68,0,0,0,3.63,2.48,4.28,4.28,0,0,0,3.38-1.69m-7.29-2.44a3.54,3.54,0,0,0,0,.46l6.93-2.4a3.19,3.19,0,0,0-3.21-2,3.6,3.6,0,0,0-3.74,4" transform="translate(0 0)"/><path class="cls-21" d="M227.21,96.2v1.53a3.53,3.53,0,0,0-3.8,3.49v5.64h-1.58V96.26h1.58v2.36a4,4,0,0,1,3.8-2.42" transform="translate(0 0)"/><path class="cls-21" d="M232.17,93.22a1,1,0,1,1-2.06,0,1,1,0,1,1,2.06,0m-.24,13.64h-1.55V96.26h1.55Z" transform="translate(0 0)"/><path class="cls-21" d="M246.51,100.33v6.53h-1.57v-6.13a2.77,2.77,0,0,0-3-3,3.47,3.47,0,0,0-3.57,3.47v5.68H236.8V96.26h1.57V98.6a4.2,4.2,0,0,1,4.11-2.4c2.54,0,4,1.55,4,4.13" transform="translate(0 0)"/><path class="cls-21" d="M260.31,96.26v9.49c0,3.1-2.12,5-5.34,5a7,7,0,0,1-4.35-1.55l.73-1.15a5.39,5.39,0,0,0,3.56,1.35,3.51,3.51,0,0,0,3.83-3.66v-1.61a4.19,4.19,0,0,1-3.91,2.21,5.1,5.1,0,0,1,0-10.19,4.22,4.22,0,0,1,4,2.22V96.26Zm-1.57,5.06a3.64,3.64,0,1,0-3.63,3.78,3.58,3.58,0,0,0,3.63-3.78" transform="translate(0 0)"/></g></svg>