<?xml version="1.0" standalone="no"?>
<!DOCTYPE svg PUBLIC "-//W3C//DTD SVG 1.1//EN" "http://www.w3.org/Graphics/SVG/1.1/DTD/svg11.dtd">
<svg xmlns="http://www.w3.org/2000/svg" xmlns:xlink="http://www.w3.org/1999/xlink" id="Calque_1" data-name="Calque 1" viewBox="0 0 216.54 105.56" width="216.5399932861328" height="105.55999755859375"><defs><style>.cls-1,.cls-20{fill:none;}.cls-2{opacity:0.4;}.cls-3{clip-path:url(#clip-path);}.cls-4{fill:#1c1d1c;}.cls-5{clip-path:url(#clip-path-2);}.cls-6{clip-path:url(#clip-path-3);}.cls-7{clip-path:url(#clip-path-4);}.cls-8{clip-path:url(#clip-path-5);}.cls-9{fill:#fcfefe;}.cls-10{clip-path:url(#clip-path-6);}.cls-11{fill:url(#Dégradé_sans_nom_5);}.cls-12{clip-path:url(#clip-path-7);}.cls-13{fill:url(#Dégradé_sans_nom_6);}.cls-14{clip-path:url(#clip-path-8);}.cls-15{fill:url(#Dégradé_sans_nom_8);}.cls-16{fill:#e21524;}.cls-17{clip-path:url(#clip-path-9);}.cls-18{opacity:0.09;}.cls-19{clip-path:url(#clip-path-10);}.cls-20{stroke:#fcfefe;stroke-miterlimit:10;}</style><clipPath id="clip-path" transform="translate(-37.41 -42.75)"><rect class="cls-1" x="37.57" y="58.2" width="51.29" height="60.25"/></clipPath><clipPath id="clip-path-2" transform="translate(-37.41 -42.75)"><rect class="cls-1" x="158.14" y="58.89" width="55.14" height="59.56"/></clipPath><clipPath id="clip-path-3" transform="translate(-37.41 -42.75)"><rect class="cls-1" x="216.68" y="58.2" width="37.27" height="60.25"/></clipPath><clipPath id="clip-path-4" transform="translate(-37.41 -42.75)"><rect class="cls-1" x="101.27" y="58.89" width="37.17" height="59.56"/></clipPath><clipPath id="clip-path-5" transform="translate(-37.41 -42.75)"><rect class="cls-1" x="119.86" y="46.75" width="35.87" height="59.64"/></clipPath><clipPath id="clip-path-6" transform="translate(-37.41 -42.75)"><path class="cls-1" d="M135.84,102.4H101.27V113a1.55,1.55,0,0,0,1.56,1.47h33.9a1.64,1.64,0,0,0,1.71-1.47v-9.12a1.58,1.58,0,0,0-1.71-1.46Z"/></clipPath><linearGradient id="Dégradé_sans_nom_5" x1="-850" y1="256.37" x2="-849" y2="256.37" gradientTransform="matrix(37.17, 0, 0, -37.17, 31660.93, 9595.9)" gradientUnits="userSpaceOnUse"><stop offset="0" stop-color="#1e80c3"/><stop offset="0.01" stop-color="#1e7fc2"/><stop offset="0.29" stop-color="#186aa0"/><stop offset="0.56" stop-color="#145a87"/><stop offset="0.8" stop-color="#115078"/><stop offset="1" stop-color="#104d73"/></linearGradient><clipPath id="clip-path-7" transform="translate(-37.41 -42.75)"><path class="cls-1" d="M113,78.82H101.27v12h31.25a1.5,1.5,0,0,0,1.56-1.46v-9a1.44,1.44,0,0,0-1.56-1.46Z"/></clipPath><linearGradient id="Dégradé_sans_nom_6" x1="-850" y1="256.37" x2="-849" y2="256.37" gradientTransform="matrix(32.81, 0, 0, -32.81, 27951.01, 8453.3)" xlink:href="#Dégradé_sans_nom_5"/><clipPath id="clip-path-8" transform="translate(-37.41 -42.75)"><path class="cls-1" d="M102.83,54.89a1.49,1.49,0,0,0-1.56,1.46V67h35.46a1.64,1.64,0,0,0,1.71-1.46V56.35a1.58,1.58,0,0,0-1.71-1.46Z"/></clipPath><linearGradient id="Dégradé_sans_nom_8" x1="-850" y1="256.37" x2="-849" y2="256.37" gradientTransform="matrix(37.17, 0, 0, -37.17, 31660.93, 9548.44)" xlink:href="#Dégradé_sans_nom_5"/><clipPath id="clip-path-9" transform="translate(-37.41 -42.75)"><path class="cls-1" d="M135.84,102.4H101.27V113a1.55,1.55,0,0,0,1.56,1.47h33.9a1.64,1.64,0,0,0,1.71-1.47v-9.12a1.58,1.58,0,0,0-1.71-1.46ZM113,78.82H101.27v12h31.25a1.5,1.5,0,0,0,1.56-1.46v-9a1.44,1.44,0,0,0-1.56-1.46ZM102.83,54.89a1.49,1.49,0,0,0-1.56,1.46V67h35.46a1.64,1.64,0,0,0,1.71-1.46V56.35a1.58,1.58,0,0,0-1.71-1.46Z"/></clipPath><clipPath id="clip-path-10" transform="translate(-37.41 -42.75)"><rect class="cls-1" x="101.27" y="54.2" width="18.59" height="60.25"/></clipPath></defs><title>Logo neext FINAL - fond noir TRANSPARENT</title><g class="cls-2"><g class="cls-3"><path class="cls-4" d="M88.86,117a1.67,1.67,0,0,1-1.8,1.47H77.42a2.19,2.19,0,0,1-1.47-.61c-8.77-12.56-16.26-23.32-25.13-36V117A1.73,1.73,0,0,1,49,118.45H39.38A1.73,1.73,0,0,1,37.57,117V59.75a1.72,1.72,0,0,1,1.81-1.55H49.1a2.13,2.13,0,0,1,1.46.6c8.61,12.4,16.53,23.41,25.22,35.89V59.75a1.67,1.67,0,0,1,1.81-1.55h9.47a1.67,1.67,0,0,1,1.8,1.55Z" transform="translate(-37.41 -42.75)"/></g></g><g class="cls-2"><g class="cls-5"><path class="cls-4" d="M177.79,88.93c-3.18-4.48-6.28-8.87-19.36-27.63h.08c-.86-1.12-.17-2.41,1.47-2.41h11.36a2.56,2.56,0,0,1,1.55.52c4.3,6.28,8.52,12.3,12.91,18.59l12.73-18.59a3.35,3.35,0,0,1,1.47-.52h11.53A1.54,1.54,0,0,1,213,61.3L193.54,88.93c2.84,3.78,5.42,7.66,8.26,11.53C205.42,105.54,209.38,111,213,116a1.54,1.54,0,0,1-1.46,2.41H200a2,2,0,0,1-1.47-.61c-4.38-6.28-8.34-12.22-12.73-18.5-4.22,5.94-8.7,12.57-12.91,18.5a2.92,2.92,0,0,1-1.55.61H160c-1.64,0-2.33-1.29-1.47-2.41h-.08Z" transform="translate(-37.41 -42.75)"/></g></g><g class="cls-2"><g class="cls-6"><path class="cls-4" d="M254,68.44a1.77,1.77,0,0,1-1.9,1.47H241.9V117a1.76,1.76,0,0,1-1.89,1.47h-9.47a1.74,1.74,0,0,1-1.81-1.47V69.91H218.49a1.74,1.74,0,0,1-1.81-1.47V59.75a1.73,1.73,0,0,1,1.81-1.55h33.56a1.76,1.76,0,0,1,1.9,1.55Z" transform="translate(-37.41 -42.75)"/></g></g><g class="cls-2"><g class="cls-7"><path class="cls-4" d="M136.73,106.4H101.27V117a1.55,1.55,0,0,0,1.56,1.47h33.9a1.64,1.64,0,0,0,1.71-1.47v-9.12a1.58,1.58,0,0,0-1.71-1.46" transform="translate(-37.41 -42.75)"/><path class="cls-4" d="M101.27,82.81v12h31.25a1.5,1.5,0,0,0,1.56-1.47v-9a1.45,1.45,0,0,0-1.56-1.47H101.27Z" transform="translate(-37.41 -42.75)"/><path class="cls-4" d="M136.73,58.89h-33.9a1.49,1.49,0,0,0-1.56,1.46V71h35.46a1.64,1.64,0,0,0,1.71-1.46V60.35a1.58,1.58,0,0,0-1.71-1.46" transform="translate(-37.41 -42.75)"/></g></g><g class="cls-2"><g class="cls-8"><path class="cls-4" d="M154.07,94.78H119.86V105a1.49,1.49,0,0,0,1.5,1.41h32.71a1.59,1.59,0,0,0,1.66-1.41v-8.8a1.53,1.53,0,0,0-1.66-1.41" transform="translate(-37.41 -42.75)"/><path class="cls-4" d="M119.86,71V82.81H150a1.45,1.45,0,0,0,1.51-1.44v-8.9A1.41,1.41,0,0,0,150,71H119.86Z" transform="translate(-37.41 -42.75)"/><path class="cls-4" d="M154.07,46.75H121.36a1.46,1.46,0,0,0-1.5,1.47V58.89h34.21a1.61,1.61,0,0,0,1.66-1.46V48.22a1.55,1.55,0,0,0-1.66-1.47" transform="translate(-37.41 -42.75)"/></g></g><path class="cls-9" d="M88.86,113a1.67,1.67,0,0,1-1.8,1.47H77.42a2.19,2.19,0,0,1-1.47-.61c-8.77-12.56-16.26-23.32-25.13-36V113A1.73,1.73,0,0,1,49,114.45H39.38A1.73,1.73,0,0,1,37.57,113V55.75a1.72,1.72,0,0,1,1.81-1.55H49.1a2.13,2.13,0,0,1,1.46.6c8.61,12.4,16.53,23.41,25.22,35.89V55.75a1.67,1.67,0,0,1,1.81-1.55h9.47a1.67,1.67,0,0,1,1.8,1.55Z" transform="translate(-37.41 -42.75)"/><path class="cls-9" d="M177.79,84.93c-3.18-4.48-6.28-8.87-19.36-27.63h.08c-.86-1.12-.17-2.41,1.47-2.41h11.36a2.56,2.56,0,0,1,1.55.52c4.3,6.28,8.52,12.3,12.91,18.59l12.73-18.59a3.35,3.35,0,0,1,1.47-.52h11.53A1.54,1.54,0,0,1,213,57.3L193.54,84.93c2.84,3.78,5.42,7.66,8.26,11.53C205.42,101.54,209.38,107,213,112a1.54,1.54,0,0,1-1.46,2.41H200a2,2,0,0,1-1.47-.61c-4.38-6.28-8.34-12.22-12.73-18.5-4.22,5.94-8.7,12.57-12.91,18.5a2.92,2.92,0,0,1-1.55.61H160c-1.64,0-2.33-1.29-1.47-2.41h-.08Z" transform="translate(-37.41 -42.75)"/><path class="cls-9" d="M254,64.44a1.77,1.77,0,0,1-1.9,1.47H241.9V113a1.76,1.76,0,0,1-1.89,1.47h-9.47a1.74,1.74,0,0,1-1.81-1.47V65.91H218.49a1.74,1.74,0,0,1-1.81-1.47V55.75a1.73,1.73,0,0,1,1.81-1.55h33.56a1.76,1.76,0,0,1,1.9,1.55Z" transform="translate(-37.41 -42.75)"/><g class="cls-10"><rect class="cls-11" x="63.86" y="59.64" width="37.17" height="12.05"/></g><g class="cls-12"><rect class="cls-13" x="63.86" y="36.06" width="32.81" height="11.96"/></g><g class="cls-14"><rect class="cls-15" x="63.86" y="12.13" width="37.17" height="12.13"/></g><path class="cls-9" d="M154.07,90.78H119.86V101a1.49,1.49,0,0,0,1.5,1.41h32.71a1.59,1.59,0,0,0,1.66-1.41v-8.8a1.53,1.53,0,0,0-1.66-1.41" transform="translate(-37.41 -42.75)"/><path class="cls-9" d="M119.86,67V78.81H150a1.45,1.45,0,0,0,1.51-1.44v-8.9A1.41,1.41,0,0,0,150,67H119.86Z" transform="translate(-37.41 -42.75)"/><path class="cls-16" d="M154.07,42.75H121.36a1.46,1.46,0,0,0-1.5,1.47V54.89h34.21a1.61,1.61,0,0,0,1.66-1.46V44.22a1.55,1.55,0,0,0-1.66-1.47" transform="translate(-37.41 -42.75)"/><g class="cls-17"><g class="cls-18"><g class="cls-19"><rect class="cls-9" x="63.86" y="11.45" width="18.59" height="60.24"/></g></g></g><g id="engineering"><path class="cls-9" d="M136,141.43l.95.84a5.46,5.46,0,0,1-4.43,2.16,5.14,5.14,0,0,1-5.38-5.38,5.07,5.07,0,0,1,5.24-5.34,4.57,4.57,0,0,1,4.85,4.13l-8.24,2.8a3.7,3.7,0,0,0,3.63,2.48,4.28,4.28,0,0,0,3.38-1.69M128.67,139a3.54,3.54,0,0,0,0,.46l6.93-2.4a3.19,3.19,0,0,0-3.2-2,3.6,3.6,0,0,0-3.75,4" transform="translate(-37.41 -42.75)"/><path class="cls-9" d="M150.53,137.84v6.53H149v-6.13a2.77,2.77,0,0,0-3-3,3.47,3.47,0,0,0-3.56,3.47v5.68h-1.57v-10.6h1.57v2.34a4.18,4.18,0,0,1,4.11-2.4c2.53,0,4,1.55,4,4.13" transform="translate(-37.41 -42.75)"/><path class="cls-9" d="M164.32,133.77v9.49c0,3.1-2.11,5.05-5.33,5.05a7,7,0,0,1-4.35-1.55l.72-1.14a5.54,5.54,0,0,0,3.57,1.35,3.52,3.52,0,0,0,3.82-3.67v-1.61a4.16,4.16,0,0,1-3.9,2.21,5.1,5.1,0,0,1,0-10.19,4.2,4.2,0,0,1,3.94,2.22v-2.16Zm-1.57,5.06a3.64,3.64,0,1,0-3.62,3.78,3.58,3.58,0,0,0,3.62-3.78" transform="translate(-37.41 -42.75)"/><path class="cls-9" d="M170.73,130.73a1,1,0,1,1-1-1.07,1,1,0,0,1,1,1.07m-.24,13.64h-1.55v-10.6h1.55Z" transform="translate(-37.41 -42.75)"/><path class="cls-9" d="M185.07,137.84v6.53H183.5v-6.13a2.77,2.77,0,0,0-3-3,3.48,3.48,0,0,0-3.57,3.47v5.68h-1.57v-10.6h1.57v2.34a4.2,4.2,0,0,1,4.11-2.4c2.54,0,4,1.55,4,4.13" transform="translate(-37.41 -42.75)"/><path class="cls-9" d="M197.42,141.43l1,.84a5.46,5.46,0,0,1-4.43,2.16,5.14,5.14,0,0,1-5.38-5.38,5.07,5.07,0,0,1,5.23-5.34,4.57,4.57,0,0,1,4.86,4.13l-8.24,2.8a3.68,3.68,0,0,0,3.63,2.48,4.28,4.28,0,0,0,3.38-1.69M190.13,139a3.54,3.54,0,0,0,0,.46l6.93-2.4a3.21,3.21,0,0,0-3.21-2,3.6,3.6,0,0,0-3.74,4" transform="translate(-37.41 -42.75)"/><path class="cls-9" d="M210.07,141.43l1,.84a5.47,5.47,0,0,1-4.44,2.16,5.14,5.14,0,0,1-5.37-5.38,5.07,5.07,0,0,1,5.23-5.34,4.57,4.57,0,0,1,4.86,4.13l-8.24,2.8a3.68,3.68,0,0,0,3.62,2.48,4.3,4.3,0,0,0,3.39-1.69M202.78,139a3.54,3.54,0,0,0,0,.46l6.93-2.4a3.21,3.21,0,0,0-3.21-2,3.6,3.6,0,0,0-3.74,4" transform="translate(-37.41 -42.75)"/><path class="cls-9" d="M220.3,133.71v1.53a3.54,3.54,0,0,0-3.81,3.49v5.64h-1.57v-10.6h1.57v2.36a4,4,0,0,1,3.81-2.42" transform="translate(-37.41 -42.75)"/><path class="cls-9" d="M225.26,130.73a1,1,0,1,1-2.06,0,1,1,0,1,1,2.06,0M225,144.37h-1.56v-10.6H225Z" transform="translate(-37.41 -42.75)"/><path class="cls-9" d="M239.6,137.84v6.53H238v-6.13a2.77,2.77,0,0,0-3-3,3.47,3.47,0,0,0-3.57,3.47v5.68h-1.57v-10.6h1.57v2.34a4.2,4.2,0,0,1,4.11-2.4c2.54,0,4,1.55,4,4.13" transform="translate(-37.41 -42.75)"/><path class="cls-9" d="M253.4,133.77v9.49c0,3.1-2.12,5.05-5.34,5.05a7,7,0,0,1-4.35-1.55l.72-1.14A5.54,5.54,0,0,0,248,147a3.52,3.52,0,0,0,3.83-3.67v-1.61a4.19,4.19,0,0,1-3.91,2.21,5.1,5.1,0,0,1,0-10.19,4.22,4.22,0,0,1,4,2.22v-2.16Zm-1.57,5.06a3.64,3.64,0,1,0-3.63,3.78,3.58,3.58,0,0,0,3.63-3.78" transform="translate(-37.41 -42.75)"/><line class="cls-20" y1="95.98" x2="84.66" y2="95.98"/></g></svg>